<svg xmlns="http://www.w3.org/2000/svg" width="384" height="128" viewBox="0 0 384 128" shape-rendering="crispEdges">
<defs>
  <g id="tree1"><ellipse cx="32" cy="58" rx="22" ry="5" fill="#06110b" fill-opacity=".45"/><rect x="27" y="36" width="10" height="23" fill="#68452a"/><rect x="24" y="41" width="6" height="17" fill="#855b34"/><rect x="34" y="38" width="5" height="20" fill="#4d321f"/><rect x="12" y="19" width="40" height="25" fill="#2b6b35"/><rect x="7" y="24" width="19" height="17" fill="#347a3d"/><rect x="36" y="23" width="21" height="18" fill="#225d31"/><rect x="16" y="9" width="32" height="25" fill="#3b8240"/><rect x="24" y="5" width="20" height="18" fill="#4a9348"/><rect x="10" y="15" width="14" height="12" fill="#418a44"/><rect x="20" y="12" width="7" height="5" fill="#63a84e"/><rect x="41" y="16" width="6" height="5" fill="#5ca04a"/><rect x="17" y="27" width="5" height="4" fill="#1e542c"/></g>
  <g id="tree2"><ellipse cx="32" cy="59" rx="23" ry="5" fill="#06110b" fill-opacity=".45"/><rect x="27" y="35" width="11" height="25" fill="#5f3e25"/><rect x="24" y="43" width="6" height="16" fill="#7c512e"/><rect x="34" y="38" width="6" height="20" fill="#432c1d"/><rect x="14" y="13" width="36" height="33" fill="#286033"/><rect x="6" y="24" width="23" height="20" fill="#34733a"/><rect x="36" y="22" width="23" height="21" fill="#1f542d"/><rect x="20" y="5" width="28" height="25" fill="#397a3d"/><rect x="27" y="2" width="14" height="13" fill="#4a8b45"/><rect x="11" y="18" width="10" height="8" fill="#4c8d45"/><rect x="41" y="13" width="6" height="6" fill="#5b9a4a"/></g>
  <g id="bush"><ellipse cx="32" cy="53" rx="22" ry="5" fill="#06110b" fill-opacity=".4"/><rect x="11" y="31" width="43" height="21" fill="#2d6a35"/><rect x="7" y="36" width="18" height="14" fill="#397c3d"/><rect x="20" y="24" width="25" height="24" fill="#3e8241"/><rect x="38" y="29" width="19" height="20" fill="#245f31"/><rect x="18" y="31" width="7" height="5" fill="#5da04a"/><rect x="38" y="27" width="6" height="4" fill="#579947"/></g>
  <g id="berry"><use href="#bush"/><g fill="#d85852"><rect x="18" y="38" width="4" height="4"/><rect x="31" y="29" width="4" height="4"/><rect x="44" y="40" width="4" height="4"/></g><g fill="#f39e57"><rect x="19" y="38" width="1" height="1"/><rect x="32" y="29" width="1" height="1"/><rect x="45" y="40" width="1" height="1"/></g></g>
  <g id="rock"><ellipse cx="32" cy="53" rx="22" ry="5" fill="#06110b" fill-opacity=".42"/><path d="M10 47l4-18 12-12 17 2 12 13-2 17z" fill="#686b62"/><path d="M14 29l13-12 3 16-12 13z" fill="#83867a"/><path d="M30 19l13 2 7 11-16 2z" fill="#74786e"/><path d="M34 35l17-2 2 15-19 1z" fill="#555a54"/><rect x="18" y="27" width="7" height="3" fill="#9a9b8c"/><rect x="38" y="24" width="6" height="3" fill="#939588"/></g>
  <g id="sign"><ellipse cx="32" cy="58" rx="13" ry="3" fill="#06110b" fill-opacity=".4"/><rect x="29" y="29" width="7" height="30" fill="#5d3b22"/><rect x="10" y="14" width="45" height="25" fill="#6f4526"/><rect x="13" y="17" width="39" height="18" fill="#966338"/><rect x="16" y="20" width="32" height="2" fill="#c38a50"/><path d="M17 29h28M21 33h20" stroke="#5b351e" stroke-width="2"/><rect x="47" y="13" width="5" height="5" fill="#4a2b1b"/></g>
  <g id="lamp"><ellipse cx="32" cy="60" rx="16" ry="3" fill="#06110b" fill-opacity=".45"/><rect x="28" y="20" width="8" height="40" fill="#282722"/><rect x="30" y="22" width="3" height="36" fill="#4c4a40"/><rect x="24" y="56" width="16" height="5" fill="#1e1e1b"/><rect x="26" y="17" width="12" height="6" fill="#292820"/><path d="M32 19v-6h13v5" fill="none" stroke="#4e3a26" stroke-width="4"/><rect x="41" y="16" width="11" height="16" fill="#2a241c"/><rect x="43" y="18" width="7" height="11" fill="#f1ba54"/><rect x="45" y="19" width="3" height="8" fill="#ffe18a"/><rect x="40" y="14" width="13" height="4" fill="#161613"/><rect x="42" y="31" width="10" height="3" fill="#161613"/></g>
  <g id="fence"><ellipse cx="32" cy="55" rx="28" ry="4" fill="#06110b" fill-opacity=".35"/><rect x="8" y="31" width="7" height="27" fill="#644126"/><rect x="49" y="31" width="7" height="27" fill="#644126"/><path d="M8 31l3-7 4 7M49 31l4-7 3 7" fill="#8e6036"/><rect x="12" y="37" width="41" height="7" fill="#8d5d32"/><rect x="12" y="48" width="41" height="7" fill="#704628"/><rect x="15" y="38" width="35" height="2" fill="#ad7742"/></g>
  <g id="barrel"><ellipse cx="32" cy="55" rx="17" ry="4" fill="#06110b" fill-opacity=".4"/><rect x="17" y="23" width="30" height="31" fill="#79502d"/><rect x="20" y="20" width="24" height="35" fill="#97683b"/><ellipse cx="32" cy="21" rx="12" ry="5" fill="#b17c47"/><ellipse cx="32" cy="21" rx="8" ry="3" fill="#6a4328"/><rect x="18" y="29" width="28" height="4" fill="#40342b"/><rect x="18" y="44" width="28" height="4" fill="#40342b"/><rect x="23" y="24" width="3" height="28" fill="#b67e46"/><rect x="38" y="24" width="3" height="28" fill="#684126"/></g>
  <g id="flowers"><path d="M18 52V29M32 53V24M46 52V31" stroke="#337430" stroke-width="3"/><g fill="#fff3dd"><rect x="13" y="23" width="6" height="6"/><rect x="19" y="27" width="6" height="6"/><rect x="27" y="18" width="6" height="6"/><rect x="33" y="22" width="6" height="6"/><rect x="41" y="25" width="6" height="6"/><rect x="47" y="29" width="6" height="6"/></g><g fill="#e0b540"><rect x="18" y="26" width="4" height="4"/><rect x="32" y="21" width="4" height="4"/><rect x="46" y="28" width="4" height="4"/></g></g>
  <g id="stump"><ellipse cx="32" cy="54" rx="20" ry="5" fill="#06110b" fill-opacity=".4"/><rect x="17" y="28" width="30" height="25" fill="#674329"/><rect x="21" y="25" width="22" height="29" fill="#865a34"/><ellipse cx="32" cy="27" rx="12" ry="6" fill="#b07c49"/><ellipse cx="32" cy="27" rx="7" ry="3" fill="none" stroke="#704625" stroke-width="2"/><rect x="20" y="40" width="4" height="10" fill="#9a693b"/><rect x="39" y="37" width="4" height="15" fill="#57371f"/></g>
  <g id="well"><ellipse cx="32" cy="58" rx="24" ry="5" fill="#06110b" fill-opacity=".4"/><rect x="12" y="35" width="40" height="22" fill="#595f59"/><rect x="15" y="31" width="34" height="25" fill="#70756d"/><path d="M15 39h34M15 48h34M26 31v25M40 31v25" stroke="#4a504b" stroke-width="2"/><ellipse cx="32" cy="31" rx="17" ry="7" fill="#909389"/><ellipse cx="32" cy="31" rx="12" ry="4" fill="#182e31"/><rect x="11" y="18" width="5" height="22" fill="#654228"/><rect x="48" y="18" width="5" height="22" fill="#654228"/><path d="M14 20h37" stroke="#8e6036" stroke-width="4"/><rect x="29" y="20" width="6" height="10" fill="#4a3424"/></g>
</defs>
<g transform="translate(0 0)"><use href="#tree1"/></g><g transform="translate(64 0)"><use href="#tree2"/></g><g transform="translate(128 0)"><use href="#bush"/></g><g transform="translate(192 0)"><use href="#berry"/></g><g transform="translate(256 0)"><use href="#rock"/></g><g transform="translate(320 0)"><use href="#sign"/></g>
<g transform="translate(0 64)"><use href="#lamp"/></g><g transform="translate(64 64)"><use href="#fence"/></g><g transform="translate(128 64)"><use href="#barrel"/></g><g transform="translate(192 64)"><use href="#flowers"/></g><g transform="translate(256 64)"><use href="#stump"/></g><g transform="translate(320 64)"><use href="#well"/></g>
</svg>
