<svg xmlns="http://www.w3.org/2000/svg" width="128" height="192" viewBox="0 0 128 192" shape-rendering="crispEdges">
<defs>
  <g id="shadow"><ellipse cx="16" cy="44" rx="11" ry="3" fill="#06100b" fill-opacity=".55"/></g>
  <g id="downA">
    <use href="#shadow"/>
    <rect x="8" y="34" width="7" height="9" fill="#332720"/><rect x="18" y="34" width="7" height="9" fill="#332720"/>
    <rect x="8" y="41" width="8" height="4" fill="#211916"/><rect x="17" y="41" width="8" height="4" fill="#211916"/>
    <rect x="7" y="20" width="19" height="17" fill="#284f7a"/><rect x="10" y="20" width="5" height="16" fill="#3d70a0"/><rect x="22" y="22" width="3" height="13" fill="#183956"/>
    <rect x="8" y="18" width="17" height="5" fill="#142b43"/><rect x="7" y="32" width="19" height="5" fill="#2a211d"/><rect x="14" y="31" width="7" height="6" fill="#c89443"/><rect x="16" y="33" width="3" height="2" fill="#19130f"/>
    <rect x="5" y="23" width="5" height="12" fill="#284f7a"/><rect x="23" y="23" width="5" height="12" fill="#284f7a"/><rect x="5" y="32" width="5" height="5" fill="#dca47b"/><rect x="23" y="32" width="5" height="5" fill="#dca47b"/>
    <rect x="9" y="7" width="15" height="13" fill="#e6b083"/><rect x="7" y="10" width="3" height="8" fill="#ca8b66"/><rect x="23" y="10" width="3" height="8" fill="#ca8b66"/>
    <rect x="8" y="4" width="17" height="7" fill="#4b2b20"/><rect x="6" y="7" width="6" height="7" fill="#5d3525"/><rect x="21" y="6" width="6" height="8" fill="#3b221a"/><rect x="11" y="2" width="12" height="5" fill="#5a3425"/><rect x="8" y="5" width="5" height="3" fill="#774731"/>
    <rect x="11" y="12" width="3" height="3" fill="#171515"/><rect x="20" y="12" width="3" height="3" fill="#171515"/><rect x="12" y="12" width="1" height="1" fill="#fff8df"/><rect x="21" y="12" width="1" height="1" fill="#fff8df"/><rect x="15" y="17" width="5" height="2" fill="#b36c5d"/>
  </g>
  <g id="downB"><use href="#downA"/><rect x="8" y="35" width="7" height="8" fill="#332720"/><rect x="18" y="33" width="7" height="10" fill="#332720"/><rect x="7" y="41" width="9" height="4" fill="#211916"/><rect x="18" y="40" width="8" height="4" fill="#211916"/></g>
  <g id="upA">
    <use href="#shadow"/>
    <rect x="8" y="34" width="7" height="9" fill="#332720"/><rect x="18" y="34" width="7" height="9" fill="#332720"/><rect x="8" y="41" width="8" height="4" fill="#211916"/><rect x="17" y="41" width="8" height="4" fill="#211916"/>
    <rect x="7" y="20" width="19" height="17" fill="#274d78"/><rect x="9" y="21" width="5" height="15" fill="#3c6d9b"/><rect x="22" y="20" width="3" height="16" fill="#173753"/><rect x="8" y="18" width="17" height="5" fill="#142b43"/><rect x="7" y="32" width="19" height="5" fill="#2a211d"/>
    <rect x="5" y="23" width="5" height="13" fill="#274d78"/><rect x="23" y="23" width="5" height="13" fill="#274d78"/><rect x="5" y="33" width="5" height="5" fill="#dca47b"/><rect x="23" y="33" width="5" height="5" fill="#dca47b"/>
    <rect x="9" y="8" width="15" height="12" fill="#dca47b"/><rect x="7" y="4" width="19" height="13" fill="#4a2a20"/><rect x="5" y="8" width="7" height="10" fill="#5a3426"/><rect x="21" y="7" width="7" height="11" fill="#3a2119"/><rect x="11" y="2" width="12" height="7" fill="#5c3525"/><rect x="8" y="5" width="6" height="5" fill="#73432f"/>
  </g>
  <g id="upB"><use href="#upA"/><rect x="8" y="33" width="7" height="10" fill="#332720"/><rect x="18" y="35" width="7" height="8" fill="#332720"/><rect x="8" y="40" width="8" height="4" fill="#211916"/><rect x="17" y="41" width="9" height="4" fill="#211916"/></g>
  <g id="rightA">
    <use href="#shadow"/>
    <rect x="9" y="34" width="7" height="9" fill="#332720"/><rect x="19" y="34" width="7" height="9" fill="#332720"/><rect x="8" y="41" width="9" height="4" fill="#211916"/><rect x="19" y="41" width="8" height="4" fill="#211916"/>
    <rect x="8" y="20" width="18" height="17" fill="#284f7a"/><rect x="9" y="20" width="5" height="16" fill="#3d70a0"/><rect x="22" y="22" width="4" height="13" fill="#183956"/><rect x="8" y="18" width="17" height="5" fill="#142b43"/><rect x="8" y="32" width="18" height="5" fill="#2a211d"/><rect x="14" y="31" width="7" height="6" fill="#c89443"/>
    <rect x="6" y="23" width="5" height="12" fill="#284f7a"/><rect x="23" y="23" width="6" height="12" fill="#284f7a"/><rect x="6" y="32" width="5" height="5" fill="#dca47b"/><rect x="25" y="32" width="5" height="5" fill="#dca47b"/>
    <rect x="10" y="7" width="14" height="13" fill="#e6b083"/><rect x="22" y="10" width="4" height="8" fill="#ca8b66"/><rect x="8" y="4" width="17" height="7" fill="#4b2b20"/><rect x="7" y="7" width="6" height="8" fill="#5d3525"/><rect x="21" y="6" width="7" height="8" fill="#3b221a"/><rect x="11" y="2" width="12" height="5" fill="#5a3425"/>
    <rect x="21" y="12" width="3" height="3" fill="#171515"/><rect x="22" y="12" width="1" height="1" fill="#fff8df"/><rect x="21" y="17" width="4" height="2" fill="#b36c5d"/>
  </g>
  <g id="rightB"><use href="#rightA"/><rect x="9" y="35" width="7" height="8" fill="#332720"/><rect x="19" y="33" width="7" height="10" fill="#332720"/><rect x="8" y="41" width="9" height="4" fill="#211916"/><rect x="20" y="40" width="8" height="4" fill="#211916"/></g>
</defs>
<!-- down -->
<g transform="translate(0 0)"><use href="#downA"/></g><g transform="translate(32 1)"><use href="#downA"/></g><g transform="translate(64 0)"><use href="#downB"/></g><g transform="translate(96 0)"><use href="#downA"/><rect x="6" y="20" width="22" height="18" fill="#8e3540" fill-opacity=".45"/></g>
<!-- left (mirror right) -->
<g transform="translate(32 48) scale(-1 1)"><use href="#rightA"/></g><g transform="translate(64 49) scale(-1 1)"><use href="#rightA"/></g><g transform="translate(96 48) scale(-1 1)"><use href="#rightB"/></g><g transform="translate(128 48) scale(-1 1)"><use href="#rightA"/><rect x="6" y="20" width="22" height="18" fill="#8e3540" fill-opacity=".45"/></g>
<!-- right -->
<g transform="translate(0 96)"><use href="#rightA"/></g><g transform="translate(32 97)"><use href="#rightA"/></g><g transform="translate(64 96)"><use href="#rightB"/></g><g transform="translate(96 96)"><use href="#rightA"/><rect x="6" y="20" width="22" height="18" fill="#8e3540" fill-opacity=".45"/></g>
<!-- up -->
<g transform="translate(0 144)"><use href="#upA"/></g><g transform="translate(32 145)"><use href="#upA"/></g><g transform="translate(64 144)"><use href="#upB"/></g><g transform="translate(96 144)"><use href="#upA"/><rect x="6" y="20" width="22" height="18" fill="#8e3540" fill-opacity=".45"/></g>
</svg>
