<svg xmlns="http://www.w3.org/2000/svg" width="160" height="128" viewBox="0 0 160 128" shape-rendering="crispEdges">
<ellipse cx="80" cy="119" rx="70" ry="7" fill="#06110b" fill-opacity=".5"/>
<!-- murs -->
<rect x="22" y="54" width="116" height="65" fill="#6d4a2d"/><rect x="28" y="58" width="104" height="57" fill="#8a5c35"/>
<path d="M28 68h104M28 84h104M28 100h104M47 58v57M75 58v57M108 58v57" stroke="#5d3a25" stroke-width="3"/>
<!-- toit -->
<path d="M12 62L37 24h86l27 38z" fill="#1f3d5d"/><path d="M21 58l21-29h77l22 29z" fill="#31577a"/>
<path d="M28 53h106M34 45h94M42 37h79M50 29h64" stroke="#52799a" stroke-width="4"/>
<path d="M12 62h138v8H12z" fill="#152b42"/><path d="M37 24L80 7l43 17" fill="#795234"/><path d="M45 25L80 12l35 13" fill="#9b6a3e"/><rect x="74" y="18" width="13" height="15" fill="#563822"/><rect x="77" y="21" width="7" height="9" fill="#f1bf58"/>
<!-- poutres -->
<rect x="22" y="54" width="8" height="65" fill="#4f321f"/><rect x="130" y="54" width="8" height="65" fill="#4f321f"/><rect x="76" y="54" width="8" height="65" fill="#4f321f"/><rect x="23" y="78" width="114" height="6" fill="#4f321f"/><rect x="20" y="113" width="120" height="7" fill="#3f2a1e"/>
<!-- porte -->
<rect x="65" y="82" width="30" height="37" fill="#3c281d"/><rect x="70" y="86" width="20" height="33" fill="#563821"/><path d="M74 86v33M86 86v33" stroke="#79512d" stroke-width="3"/><rect x="86" y="101" width="4" height="4" fill="#d8a24a"/>
<!-- fenêtres -->
<rect x="34" y="83" width="24" height="24" fill="#3a2b23"/><rect x="38" y="87" width="16" height="16" fill="#f0bc4d"/><rect x="41" y="89" width="5" height="12" fill="#ffe27c"/><path d="M46 87v16M38 95h16" stroke="#6d4427" stroke-width="3"/>
<rect x="102" y="83" width="24" height="24" fill="#3a2b23"/><rect x="106" y="87" width="16" height="16" fill="#f0bc4d"/><rect x="109" y="89" width="5" height="12" fill="#ffe27c"/><path d="M114 87v16M106 95h16" stroke="#6d4427" stroke-width="3"/>
<!-- porche et détails -->
<rect x="57" y="117" width="46" height="7" fill="#7f694d"/><rect x="62" y="124" width="36" height="4" fill="#5c4b38"/>
<rect x="20" y="69" width="9" height="11" fill="#25251f"/><rect x="22" y="71" width="5" height="7" fill="#efb64d"/>
<rect x="134" y="69" width="9" height="11" fill="#25251f"/><rect x="136" y="71" width="5" height="7" fill="#efb64d"/>
<rect x="8" y="96" width="20" height="20" fill="#76502e"/><ellipse cx="18" cy="96" rx="10" ry="4" fill="#9e6e40"/><path d="M8 103h20M8 111h20" stroke="#3e342a" stroke-width="3"/>
<rect x="133" y="93" width="20" height="23" fill="#76502e"/><ellipse cx="143" cy="93" rx="10" ry="4" fill="#9e6e40"/><path d="M133 101h20M133 110h20" stroke="#3e342a" stroke-width="3"/>
</svg>
