<svg xmlns="http://www.w3.org/2000/svg" width="240" height="200" viewBox="0 0 240 200" shape-rendering="crispEdges">
<defs>
  <g id="slime"><ellipse cx="20" cy="34" rx="14" ry="4" fill="#07120d" fill-opacity=".55"/><rect x="7" y="22" width="26" height="11" fill="#4b964f"/><rect x="9" y="18" width="22" height="14" fill="#63bd68"/><rect x="12" y="15" width="7" height="6" fill="#81d47d"/><rect x="13" y="23" width="3" height="4" fill="#172019"/><rect x="25" y="23" width="3" height="4" fill="#172019"/><rect x="14" y="23" width="1" height="1" fill="#fff"/><rect x="26" y="23" width="1" height="1" fill="#fff"/><rect x="18" y="29" width="5" height="2" fill="#356d38"/></g>
  <g id="rat"><ellipse cx="20" cy="34" rx="14" ry="4" fill="#07120d" fill-opacity=".55"/><ellipse cx="22" cy="27" rx="13" ry="7" fill="#756760"/><rect x="7" y="19" width="15" height="12" fill="#80716a"/><rect x="8" y="14" width="5" height="7" fill="#a1867c"/><rect x="17" y="14" width="5" height="7" fill="#a1867c"/><rect x="10" y="22" width="3" height="3" fill="#111"/><rect x="18" y="22" width="3" height="3" fill="#111"/><rect x="11" y="22" width="1" height="1" fill="#fff"/><path d="M31 27l8-5M31 28l8 2" stroke="#a18a7c" stroke-width="2"/><path d="M7 26L1 23M7 28l-7 2" stroke="#d0c2b4"/></g>
  <g id="boar"><ellipse cx="21" cy="35" rx="15" ry="4" fill="#07120d" fill-opacity=".55"/><ellipse cx="23" cy="25" rx="14" ry="9" fill="#80503b"/><rect x="6" y="19" width="17" height="13" fill="#85523c"/><rect x="8" y="15" width="5" height="6" fill="#4c2c23"/><rect x="18" y="15" width="5" height="6" fill="#4c2c23"/><ellipse cx="8" cy="29" rx="7" ry="5" fill="#a36b4b"/><rect x="5" y="28" width="2" height="2" fill="#151210"/><rect x="11" y="28" width="2" height="2" fill="#151210"/><rect x="11" y="22" width="2" height="2" fill="#111"/><rect x="19" y="22" width="2" height="2" fill="#111"/><rect x="13" y="31" width="4" height="6" fill="#35221c"/><rect x="28" y="31" width="4" height="6" fill="#35221c"/><path d="M3 29l-4-4M13 30l3-5" stroke="#e4d9bd" stroke-width="2"/></g>
  <g id="wolf"><ellipse cx="21" cy="35" rx="15" ry="4" fill="#07120d" fill-opacity=".55"/><ellipse cx="23" cy="26" rx="13" ry="8" fill="#66706a"/><rect x="7" y="18" width="15" height="14" fill="#6e7972"/><path d="M8 19l1-9 6 8M18 18l5-8 1 11" fill="#4c5651"/><rect x="10" y="22" width="3" height="3" fill="#e8d86a"/><rect x="18" y="22" width="3" height="3" fill="#e8d86a"/><rect x="14" y="28" width="5" height="3" fill="#272c29"/><path d="M31 25l8-8" stroke="#59615d" stroke-width="4"/><rect x="12" y="31" width="4" height="6" fill="#323833"/><rect x="28" y="31" width="4" height="6" fill="#323833"/></g>
  <g id="wisp"><ellipse cx="20" cy="35" rx="9" ry="3" fill="#07120d" fill-opacity=".55"/><path d="M20 6l5 9 6 4-4 6 1 9-8-4-8 4 1-9-4-6 6-4z" fill="#f08025"/><path d="M20 10l3 7 4 3-3 5 1 5-5-3-5 3 1-6-3-4 4-3z" fill="#ffc13b"/><rect x="15" y="20" width="4" height="4" fill="#2d241b"/><rect x="23" y="20" width="4" height="4" fill="#2d241b"/><rect x="16" y="20" width="1" height="1" fill="#fff"/><rect x="24" y="20" width="1" height="1" fill="#fff"/></g>
</defs>
<!-- row helper: six states per type -->
<g transform="translate(0 0)"><use href="#slime"/></g><g transform="translate(40 1)"><use href="#slime"/></g><g transform="translate(80 0)"><use href="#slime"/><rect x="8" y="31" width="8" height="3" fill="#3d823f"/></g><g transform="translate(121 -1) scale(1.05)"><use href="#slime"/></g><g transform="translate(160 0)"><use href="#slime"/><rect x="7" y="17" width="26" height="16" fill="#dc626d" fill-opacity=".5"/></g><g transform="translate(200 8) scale(1 .55)"><use href="#slime"/></g>
<g transform="translate(0 40)"><use href="#rat"/></g><g transform="translate(40 41)"><use href="#rat"/></g><g transform="translate(80 40)"><use href="#rat"/><rect x="14" y="32" width="4" height="5" fill="#4f433e"/></g><g transform="translate(121 39) scale(1.05)"><use href="#rat"/></g><g transform="translate(160 40)"><use href="#rat"/><rect x="7" y="18" width="27" height="15" fill="#c95d69" fill-opacity=".5"/></g><g transform="translate(200 50) scale(1 .5)"><use href="#rat"/></g>
<g transform="translate(0 80)"><use href="#boar"/></g><g transform="translate(40 81)"><use href="#boar"/></g><g transform="translate(80 80)"><use href="#boar"/><rect x="8" y="32" width="5" height="5" fill="#35221c"/></g><g transform="translate(121 79) scale(1.05)"><use href="#boar"/></g><g transform="translate(160 80)"><use href="#boar"/><rect x="6" y="17" width="29" height="17" fill="#d75e64" fill-opacity=".48"/></g><g transform="translate(200 90) scale(1 .5)"><use href="#boar"/></g>
<g transform="translate(0 120)"><use href="#wolf"/></g><g transform="translate(40 121)"><use href="#wolf"/></g><g transform="translate(80 120)"><use href="#wolf"/><rect x="11" y="32" width="5" height="5" fill="#323833"/></g><g transform="translate(121 119) scale(1.05)"><use href="#wolf"/></g><g transform="translate(160 120)"><use href="#wolf"/><rect x="7" y="16" width="29" height="18" fill="#d86570" fill-opacity=".5"/></g><g transform="translate(200 130) scale(1 .5)"><use href="#wolf"/></g>
<g transform="translate(0 160)"><use href="#wisp"/></g><g transform="translate(40 158) scale(1.08)"><use href="#wisp"/></g><g transform="translate(80 161)"><use href="#wisp"/></g><g transform="translate(120 157) scale(1.12)"><use href="#wisp"/></g><g transform="translate(160 160)"><use href="#wisp"/><rect x="9" y="10" width="22" height="24" fill="#ef7e95" fill-opacity=".45"/></g><g transform="translate(200 171) scale(1 .45)"><use href="#wisp"/></g>
</svg>
